/vscmnt/brussel_pixiu_data/_data_brussel/112/vsc11236/PredSimResults/SUBJ06mtu3D/weighted-expIG/worker_02.mot
version=1
nRows=4
nColumns=50
inDegrees=yes
endheader
                time	         pelvis_tilt	         pelvis_list	     pelvis_rotation	           pelvis_tx	           pelvis_ty	           pelvis_tz	       hip_flexion_r	     hip_adduction_r	      hip_rotation_r	        knee_angle_r	       ankle_angle_r	         mtp_angle_r	       hip_flexion_l	     hip_adduction_l	      hip_rotation_l	        knee_angle_l	       ankle_angle_l	         mtp_angle_l	    lumbar_extension	      lumbar_bending	     lumbar_rotation	 ercspn_r/activation	 intobl_r/activation	 extobl_r/activation	    abd_r/activation	    add_r/activation	hamstrings_r/activation	bifemsh_r/activation	glut_max_r/activation	iliopsoas_r/activation	rect_fem_r/activation	  vasti_r/activation	gastroc_r/activation	 soleus_r/activation	tib_ant_r/activation	 ercspn_l/activation	 intobl_l/activation	 extobl_l/activation	    abd_l/activation	    add_l/activation	hamstrings_l/activation	bifemsh_l/activation	glut_max_l/activation	iliopsoas_l/activation	rect_fem_l/activation	  vasti_l/activation	gastroc_l/activation	 soleus_l/activation	tib_ant_l/activation	
          2.00000002	         -8.23443040	          5.07462979	        -13.82159450	          2.22000002	          0.96434020	          0.00742741	         19.45597117	          1.65158241	         12.32014859	        -23.53265503	         13.72563586	          0.72493681	         25.38272974	          2.76816782	         -6.87041862	        -38.57523752	         -0.71158542	         25.17446218	         -3.61876905	         -1.66247894	        -10.14796545	          0.12393811	          0.09698966	          0.05618661	          0.15685592	          0.14136214	          0.20644104	          0.01122615	          0.01105219	          0.01530456	          0.04325061	          0.05951685	          0.00999999	          0.01000000	          0.37374744	          0.10130611	          0.13404561	          0.00999999	          0.02199997	          0.00999999	          0.01000000	          0.26787385	          0.01483091	          0.30385815	          0.46589784	          0.00999999	          0.15936417	          0.07278074	          0.14646442	
          2.02000002	         -7.87329098	          5.03149534	        -13.27591545	          2.23910460	          0.95914355	          0.00573800	         18.08385069	          1.30156914	         11.93090699	        -23.31930084	         14.99616103	          1.35595123	         29.37809662	          2.93121921	         -6.07272216	        -47.88401324	         -0.84866978	         22.65957842	         -4.18973149	         -1.54475425	         -9.42598464	          0.09295358	          0.07274225	          0.04213996	          0.17685192	          0.10602161	          0.15483078	          0.01000000	          0.00999999	          0.01147842	          0.03243796	          0.19208575	          0.12747649	          0.21894716	          0.28031058	          0.14654925	          0.14443124	          0.29609411	          0.01649998	          0.00999999	          0.00999999	          0.23718151	          0.01112318	          0.22789362	          0.77109908	          0.00999999	          0.11952313	          0.05458556	          0.30703535	
          2.04000002	         -7.60974016	          4.82430974	        -12.67502865	          2.25852425	          0.95257889	          0.00410701	         16.35367359	          0.88179777	         11.26311891	        -23.41621212	         17.13439322	          3.41187694	         33.12453643	          2.97726616	         -5.47757843	        -55.89142716	          0.01101419	         17.90741910	         -4.68429774	         -1.28779116	         -8.66175135	          0.06971519	          0.05455668	          0.03160497	          0.25615223	          0.07951620	          0.11612308	          0.01000006	          0.11451607	          0.00999999	          0.02432847	          0.21441451	          0.16469280	          0.28849176	          0.21023293	          0.14670885	          0.13933512	          0.28053977	          0.01237498	          0.00999999	          0.00999999	          0.17788615	          0.00999999	          0.18972326	          0.90189961	          0.00999999	          0.08964235	          0.04093917	          0.34293415	
          2.06000002	         -7.44956517	          4.46094634	        -12.05253997	          2.27784585	          0.94697922	          0.00279159	         14.68514884	          0.67972624	         10.40547750	        -23.46327591	         19.00298090	          5.54706125	         36.14146773	          2.82662084	         -4.94358539	        -60.41297753	          2.12465752	         13.89324263	         -5.18745098	         -0.96239573	         -7.87262022	          0.05228639	          0.04091751	          0.02370373	          0.27278384	          0.05963715	          0.08709231	          0.01000001	          0.08588705	          0.00999999	          0.01824635	          0.25197503	          0.20993027	          0.35947601	          0.15767470	          0.13757530	          0.16280231	          0.21040483	          0.00999999	          0.00999999	          0.00999999	          0.13341461	          0.00999999	          0.17977168	          0.88584100	          0.00999999	          0.06723176	          0.03070437	          0.32802358	
